<?xml version="1.0" standalone="no"?>
<!DOCTYPE svg PUBLIC "-//W3C//DTD SVG 20010904//EN"
 "http://www.w3.org/TR/2001/REC-SVG-20010904/DTD/svg10.dtd">
<svg version="1.0" xmlns="http://www.w3.org/2000/svg"
 width="128.000000pt" height="128.000000pt" viewBox="0 0 128.000000 128.000000"
 preserveAspectRatio="xMidYMid meet">

<g transform="translate(0.000000,128.000000) scale(0.100000,-0.100000)"
fill="#000000" stroke="none">
<path d="M455 1270 c-203 -41 -361 -184 -431 -390 -26 -76 -26 -244 0 -320 53
-158 152 -274 289 -339 45 -22 106 -44 135 -50 125 -26 263 -5 377 58 l70 39
136 -134 c117 -116 140 -134 168 -134 43 0 81 38 81 81 0 28 -18 51 -134 168
l-134 136 39 70 c119 216 80 483 -97 659 -129 130 -324 191 -499 156z m246
-180 c272 -102 346 -456 137 -656 -89 -84 -187 -120 -305 -111 -232 17 -399
228 -362 455 39 246 298 399 530 312z"/>
</g>
</svg>
